PathFileType	4	(X/Y/Z)	D:\TRACE\v60_Jaco2_6-2-23\JustBodyDRS_Motion3_1-v60.trc
DataRate	CameraRate	NumFrames	NumMarkers	Units	OrigDataRate	OrigDataStartFrame	OrigNumFrames
100.00	100.00	      39	9	mm	100.00	876	      7000
Frame#	Time	front left toe			Front right toe			aft left toe			aft right toe			Arm			FL body			FR body			AL Body			AR Body			
		X1	Y1	Z1	X2	Y2	Z2	X3	Y3	Z3	X4	Y4	Z4	X5	Y5	Z5	X6	Y6	Z6	X7	Y7	Z7	X8	Y8	Z8	X9	Y9	Z9	

876	8.750	-208.28714	6.28065	-209.69101	186.33037	22.14981	-194.39548	-144.86044	50.34036	446.58084	198.52687	33.16217	393.05841	1.36445	1204.13037	-258.34903	-86.47405	569.36102	-349.22897	72.44648	568.74396	-354.96106	-45.82928	585.84125	594.83191	106.39658	576.42004	588.50494	
877	8.760	-208.29597	6.13291	-209.45641	184.70543	32.62241	-194.03795	-142.86209	61.24822	444.51819	198.35860	33.36790	393.22186	1.67913	1204.62207	-257.54456	-86.61787	569.49933	-349.82831	72.27542	569.00085	-355.60178	-46.65836	586.45667	594.01477	105.32876	576.88477	587.71143	
878	8.770	-208.27356	6.13488	-209.45030	183.96930	44.18523	-195.04547	-140.45642	72.58720	442.82230	198.50992	33.31490	393.21500	2.25759	1205.22278	-256.97012	-87.03198	569.92175	-350.66086	71.85210	569.03967	-356.17365	-47.37256	586.53333	593.68945	104.55518	576.85547	587.23730	
879	8.780	-208.31415	6.00412	-209.54630	184.55341	57.38073	-197.67836	-142.82559	85.10941	440.23007	198.70384	33.03534	393.26434	2.35484	1205.36609	-257.24057	-87.51035	570.02045	-350.98203	70.72009	569.15576	-356.23108	-47.60383	586.09625	593.33014	104.78329	576.25183	586.94598	
880	8.790	-208.37221	5.76497	-209.28058	185.19121	70.67384	-201.11646	-148.73315	98.45073	437.26932	198.78232	32.70243	393.25900	1.86139	1204.82239	-257.90903	-88.06316	569.91840	-351.11319	70.37703	569.10168	-356.44052	-48.36896	585.20947	593.22070	104.39796	575.67108	586.79138	
881	8.800	-208.44641	5.63190	-209.45787	186.62643	84.11279	-204.31056	-152.64352	110.38450	434.39246	198.85306	32.43446	393.21024	1.04948	1204.09155	-258.24847	-88.36009	569.69702	-350.91040	69.80456	568.99268	-356.59393	-47.74938	584.44684	592.99823	104.43152	574.74084	586.57703	
882	8.810	-208.48488	5.42942	-209.34193	187.23259	97.21546	-207.46640	-156.26907	122.50263	431.11554	198.90160	32.21566	393.10529	-0.26100	1203.69604	-258.27795	-88.78042	569.66571	-350.90030	69.64268	569.00189	-357.05231	-47.85658	583.65240	592.84485	104.93690	573.88538	586.52325	
883	8.820	-208.43250	5.34911	-209.31438	187.34967	109.06846	-209.74551	-156.60928	134.11026	428.56842	199.03714	32.03094	393.03497	-1.69761	1203.94214	-257.58386	-89.34577	569.59344	-350.95645	68.86274	568.83319	-356.83731	-47.53857	583.12012	592.77826	104.70580	573.50806	586.33325	
884	8.830	-208.40410	5.46821	-209.21063	186.29189	120.43275	-212.45044	-158.27180	145.58755	426.23135	199.00021	31.88131	393.03256	-1.97707	1204.21277	-256.64407	-89.72944	569.38269	-351.03076	68.67864	568.74469	-356.80005	-47.57939	582.77472	592.79321	104.49822	573.32751	586.18481	
885	8.840	-208.37047	5.52643	-209.24828	185.14755	130.40114	-214.71750	-159.55859	155.99130	423.92947	198.97443	31.85699	392.99405	-1.96081	1204.25317	-255.88910	-90.01572	569.14142	-350.91241	68.10307	568.64203	-356.77658	-47.85617	582.69110	592.91406	104.23772	573.16040	586.23718	
886	8.850	-208.30725	5.43116	-209.20670	184.69518	137.89682	-215.83871	-160.25308	162.68164	423.04568	199.02922	31.82786	392.93585	-1.91822	1204.00439	-255.69574	-90.51586	568.85718	-350.66376	68.04514	568.41473	-356.83923	-47.70225	582.56549	593.25549	104.27735	573.13263	586.48840	
887	8.860	-208.23853	5.21483	-208.94073	184.68970	142.36298	-216.70979	-160.59160	166.68111	422.42538	198.97987	31.75994	393.07742	-1.90056	1203.38074	-255.69836	-90.90176	568.62347	-350.08273	67.23946	568.17279	-356.33188	-47.42540	582.40942	593.77161	104.53917	572.93323	586.79224	
888	8.870	-208.13744	5.23667	-208.85052	184.48604	143.93871	-216.80415	-162.42467	168.16130	422.26208	199.24384	31.87332	392.97458	-2.00378	1202.95483	-255.77962	-91.24088	568.30627	-349.54358	66.81988	568.07813	-355.60675	-47.23368	582.23761	593.92212	104.72438	572.72076	587.10388	
889	8.880	-207.92778	5.29060	-208.63326	184.11768	142.71672	-215.97502	-166.27562	169.59569	421.68494	199.53838	31.95500	393.05328	-2.70601	1202.81750	-255.89978	-91.84973	568.15240	-349.11221	66.23586	567.87201	-355.37549	-46.77861	582.19891	594.38281	104.94245	572.83252	587.48804	
890	8.890	-207.89989	5.27567	-208.69385	183.30713	138.57114	-215.74506	-168.74307	166.89146	422.36310	199.78600	32.03528	393.02682	-3.89456	1202.80066	-255.76828	-92.36482	567.95813	-348.72165	66.79152	567.43024	-355.09320	-46.40390	582.35205	595.19287	104.98980	572.99554	587.86023	
891	8.900	-207.83827	5.25812	-208.59343	182.04604	133.36775	-214.80551	-170.70599	163.14078	423.02271	199.90932	32.09850	393.08026	-4.78933	1202.61267	-254.90976	-92.66617	567.77863	-348.21735	66.42172	567.17938	-354.77936	-46.31401	582.58734	595.50647	105.62393	573.26135	588.45581	
892	8.910	-207.68010	5.15087	-208.45619	180.56107	127.45293	-214.46223	-170.98044	156.88216	424.45612	200.36534	32.21743	393.13004	-5.48638	1202.34070	-254.42203	-93.07152	567.72351	-347.64597	65.85133	566.91833	-354.27295	-46.19156	582.65186	595.92297	105.56924	573.14655	588.84143	
893	8.920	-207.74796	5.11333	-208.59044	178.57161	120.47665	-214.21561	-172.70537	151.35823	424.93622	200.57018	32.26139	393.22430	-5.88294	1202.26904	-253.98355	-93.30674	567.42944	-346.78970	65.33667	566.69348	-353.72601	-46.10377	582.51416	596.73090	105.55062	572.94727	589.27234	
894	8.930	-207.65300	5.06918	-208.44019	177.10274	112.73594	-214.63638	-176.19626	145.24298	425.20755	200.98402	32.29574	393.24341	-5.35839	1202.04224	-253.25519	-93.76160	567.36639	-346.24265	65.11754	566.62946	-353.12100	-46.30434	582.14447	597.50159	106.01259	572.59967	589.99768	
895	8.940	-207.63589	5.04735	-208.43484	175.09154	104.11821	-214.66685	-178.04390	137.62267	425.35089	201.25665	32.39021	393.28146	-4.74657	1201.98853	-252.52953	-94.06131	567.38489	-345.45898	64.52114	566.60645	-352.74411	-46.21671	581.99890	597.76080	105.99058	572.49329	590.55676	
896	8.950	-207.57739	5.07488	-208.56558	173.94177	95.13570	-215.16893	-179.78331	128.48936	425.51083	201.34584	32.29760	393.32074	-4.42074	1201.96082	-252.05263	-94.58656	567.43866	-345.03891	64.18431	566.43256	-351.97787	-46.35798	581.95459	598.60156	105.69238	572.26416	590.98425	
897	8.960	-207.55655	4.96300	-208.52100	172.75780	86.43306	-214.93288	-182.63039	118.97054	425.26959	201.37408	32.29279	393.34222	-3.93832	1201.80066	-251.00063	-95.07092	567.15936	-344.34903	64.01332	566.33875	-351.32104	-46.31952	581.72229	599.33722	105.37859	572.19543	591.61639	
898	8.970	-207.45717	4.82861	-208.44208	171.20950	77.18430	-214.94176	-184.99652	108.95903	425.36105	201.39920	32.23447	393.36450	-3.97387	1201.81116	-250.28918	-95.28510	567.07312	-343.68576	63.61314	566.15790	-350.73193	-46.93694	581.60431	599.73706	105.08852	571.95172	592.39734	
899	8.980	-207.01958	4.51380	-208.52437	169.84718	67.77229	-214.06175	-186.64777	99.98926	425.10126	201.41150	32.19939	393.36267	-3.79734	1201.75867	-249.41788	-95.26102	567.11395	-342.89087	63.30252	566.04358	-350.08701	-47.21376	581.35736	600.43469	105.04720	571.41394	592.97687	
900	8.990	-206.81792	4.50744	-208.54004	168.81648	58.41235	-212.60387	-188.79559	91.62872	425.37671	201.47185	32.19550	393.40555	-3.46231	1201.60437	-248.73622	-95.30020	567.18701	-342.16989	63.33295	565.91125	-349.17258	-47.56780	581.17072	601.37134	104.82864	570.86847	593.81995	
901	9.000	-206.63463	4.53784	-208.57654	167.81255	49.35316	-211.00171	-191.23868	83.27551	426.17468	201.52875	32.30838	393.43625	-3.11728	1201.58521	-248.13831	-95.42795	567.32690	-341.66507	63.51121	565.67035	-348.54120	-48.02717	581.17188	601.80536	104.10456	570.68164	594.35999	
902	9.010	-206.70097	4.62990	-208.52780	168.22491	40.65660	-208.74887	-192.95355	74.88570	427.49011	201.58624	32.40776	393.48209	-2.53929	1201.27161	-247.49367	-95.63567	567.30505	-341.32181	62.91855	565.33917	-347.61804	-49.00622	581.04315	602.64618	103.56120	570.34265	595.45953	
903	9.020	-206.64188	4.45658	-208.52551	168.34180	32.90348	-206.34140	-194.34818	67.59006	428.87241	201.63133	32.47778	393.47867	-1.53620	1200.80469	-246.80757	-95.37089	566.79797	-340.30023	62.58712	565.03833	-346.72092	-49.64161	580.76349	603.14490	102.48657	570.17053	596.19507	
904	9.030	-206.58224	4.28305	-208.50610	169.30750	26.15400	-203.55000	-195.08459	60.63341	430.30801	201.70270	32.58756	393.50095	-0.59618	1200.41064	-246.23416	-95.20087	566.36292	-339.48309	63.15026	564.53625	-346.15143	-51.38293	580.69397	603.92010	101.98421	570.02545	596.99451	
905	9.040	-206.40555	4.23961	-208.45673	170.11798	20.07261	-201.12930	-196.10010	54.54470	431.67761	201.82771	32.66142	393.55945	0.10913	1200.23376	-245.52646	-95.28788	566.38208	-339.13428	63.41363	564.18506	-345.24442	-51.81365	580.73877	604.88300	101.61799	570.05389	598.02594	
906	9.050	-206.18875	4.19619	-208.48335	170.52438	13.31462	-199.23810	-197.29144	48.29704	432.89587	202.01167	32.81945	393.61758	1.13652	1199.90833	-244.79591	-95.22907	566.15247	-338.01532	63.62288	563.84485	-344.40842	-53.10126	580.96185	605.48993	99.53614	569.73212	599.02069	
907	9.060	-206.01733	4.20026	-208.53656	171.05345	7.31005	-197.39836	-197.93607	42.02817	433.21683	202.23349	32.99305	393.81033	1.69997	1199.76550	-244.13351	-94.81708	566.02881	-337.45450	63.75159	563.58368	-343.18024	-54.11339	581.03412	606.38440	99.56935	569.73456	599.89575	
908	9.070	-205.79420	4.02699	-208.63831	171.72069	5.47418	-197.88715	-199.24919	40.79729	432.98840	202.53041	33.23424	393.97525	1.99893	1199.60693	-243.20944	-94.57082	565.93274	-336.63632	63.50953	563.49579	-342.07944	-55.42315	581.32257	607.22681	98.44644	569.93982	601.15051	
909	9.080	-205.59990	4.10965	-208.40521	172.25919	5.39018	-198.83354	-199.55006	41.38066	432.13278	202.42661	33.67385	394.19992	2.05616	1199.62854	-242.45668	-94.29533	566.39581	-335.65701	63.81191	563.61011	-340.80841	-56.20814	582.23834	608.28119	96.46275	570.59637	602.19824	
910	9.090	-205.11052	5.06042	-208.67540	171.87840	5.55222	-198.73111	-198.93356	40.89991	432.99487	202.30156	34.53101	394.25760	2.35045	1200.60474	-241.84985	-94.45974	567.26373	-335.08960	64.34436	564.91016	-340.40509	-57.64004	583.19910	609.04901	95.38661	571.43219	603.14307	
911	9.100	-204.01643	8.84895	-208.12910	171.32135	5.74165	-197.74557	-198.88786	40.18918	432.80481	201.76591	37.59136	395.11624	2.76946	1201.82690	-240.88684	-94.49287	568.69373	-334.58987	64.55864	565.98071	-339.39218	-57.88086	583.40576	609.66748	95.01110	571.69635	603.97949	
912	9.110	-200.59009	13.29306	-204.10876	170.73299	5.49933	-198.81665	-198.30637	39.86626	432.54425	199.26785	41.16155	398.95474	2.70554	1203.38635	-239.86201	-94.39207	570.14471	-334.30972	64.50828	567.39130	-338.82932	-59.14560	583.07581	610.02411	94.63469	571.24664	604.43054	
913	9.120	-197.77509	21.93846	-201.38559	171.13300	5.31570	-198.85336	-198.76955	40.18033	432.22662	195.25168	47.72132	401.75711	2.00608	1204.59692	-238.59398	-93.86194	570.76642	-333.83865	64.90877	567.93866	-338.37149	-59.81210	583.09265	610.48169	92.81478	570.85852	605.04279	
914	9.130	-196.50252	31.87053	-199.97003	171.64163	5.07021	-198.68958	-198.36736	39.93930	432.14542	192.70558	57.62877	403.02008	2.26944	1205.02771	-236.96414	-93.07049	570.94421	-333.59332	65.84734	568.24786	-337.85294	-60.35733	583.25629	610.73798	91.66969	570.99493	605.54968	
